HIERARCHY
ROOT Hips
{
  OFFSET 43.0842 91.1655 101.099
  CHANNELS 6 Xposition Yposition Zposition Zrotation Xrotation Yrotation
  JOINT LeftUpLeg
  {
    OFFSET 8.64259 1.95398 -2.38835
    CHANNELS 3 Zrotation Xrotation Yrotation
    JOINT LeftLeg
    {
      OFFSET 43.7702 0 0
      CHANNELS 3 Zrotation Xrotation Yrotation
      JOINT LeftFoot
      {
        OFFSET 40.6238 0 0
        CHANNELS 3 Zrotation Xrotation Yrotation
        JOINT LeftToeBase
        {
          OFFSET 12.7242 0 0
          CHANNELS 3 Zrotation Xrotation Yrotation
          End Site
          {
            OFFSET 0 0 0
          }
        }
      }
    }
  }
  JOINT RightUpLeg
  {
    OFFSET -8.2249 1.95398 -2.59336
    CHANNELS 3 Zrotation Xrotation Yrotation
    JOINT RightLeg
    {
      OFFSET 43.5653 0 0
      CHANNELS 3 Zrotation Xrotation Yrotation
      JOINT RightFoot
      {
        OFFSET 40.6238 0 0
        CHANNELS 3 Zrotation Xrotation Yrotation
        JOINT RightToeBase
        {
          OFFSET 12.7242 0 0
          CHANNELS 3 Zrotation Xrotation Yrotation
          End Site
          {
            OFFSET 0 0 0
          }
        }
      }
    }
  }
  JOINT Spine
  {
    OFFSET 0.165834 0.87714 6.61349
    CHANNELS 3 Zrotation Xrotation Yrotation
    JOINT Spine1
    {
      OFFSET 7.38963 1.71661e-005 0
      CHANNELS 3 Zrotation Xrotation Yrotation
      JOINT Spine2
      {
        OFFSET 11.9445 1.14441e-005 0
        CHANNELS 3 Zrotation Xrotation Yrotation
        JOINT Spine3
        {
          OFFSET 14.7254 4.19617e-005 0
          CHANNELS 3 Zrotation Xrotation Yrotation
          JOINT Spine4
          {
            OFFSET 10.9679 0 0
            CHANNELS 3 Zrotation Xrotation Yrotation
            JOINT RightShoulder
            {
              OFFSET 2.46616 -1.6653 3.69651
              CHANNELS 3 Zrotation Xrotation Yrotation
              JOINT RightArm
              {
                OFFSET 13.0012 0 0
                CHANNELS 3 Zrotation Xrotation Yrotation
                JOINT RightForeArm
                {
                  OFFSET 28.7848 1.52588e-005 0
                  CHANNELS 3 Zrotation Xrotation Yrotation
                  JOINT RightHand
                  {
                    OFFSET 26.5688 1.52588e-005 0
                    CHANNELS 3 Zrotation Xrotation Yrotation
                    End Site
                    {
                      OFFSET 0 0 0
                    }
                  }
                }
              }
            }
            JOINT LeftShoulder
            {
              OFFSET 2.38034 -1.29275 -3.7523
              CHANNELS 3 Zrotation Xrotation Yrotation
              JOINT LeftArm
              {
                OFFSET 16.3182 6.10351e-005 0
                CHANNELS 3 Zrotation Xrotation Yrotation
                JOINT LeftForeArm
                {
                  OFFSET 27.0901 0 0
                  CHANNELS 3 Zrotation Xrotation Yrotation
                  JOINT LeftHand
                  {
                    OFFSET 24.5451 1.52588e-005 0
                    CHANNELS 3 Zrotation Xrotation Yrotation
                    End Site
                    {
                      OFFSET 0 0 0
                    }
                  }
                }
              }
            }
            JOINT Neck
            {
              OFFSET 5.0226 -0.0266342 0
              CHANNELS 3 Zrotation Xrotation Yrotation
              JOINT Head
              {
                OFFSET 6.69364 2.86102e-005 0
                CHANNELS 3 Zrotation Xrotation Yrotation
                End Site
                {
                  OFFSET 0 0 0
                }
              }
            }
          }
        }
      }
    }
  }
}
MOTION
Frames:	7
Frame Time:	0.0333333
-68.1149 90.0053 -7.44859 93.512 -2.2839 91.2974 -166.501 4.43994 98.5324 -33.3073 18.4628 -5.54036 66.0358 9.14098 25.7325 35.5004 5.53368 5.91533 175.745 18.5021 80.9087 -19.6896 3.70658 -2.02166 61.1884 -4.21175 15.2708 30.1567 -2.3171 4.54274 -0.960224 7.1577 -89.6825 12.5659 -1.75608 0.838365 0.895835 -1.7175 0.914848 -21.6484 -1.92686 0.27166 -1.63577 -1.92684 0.271658 97.1317 -44.627 -90.3834 6.07448 30.8064 -41.9422 -19.6153 7.24966 -63.1577 -15.4928 -3.02946 2.67324 -91.8432 -43.3507 74.2375 3.49225 10.0222 -56.5889 7.94209 -5.57605 -54.2613 22.7497 2.74703 -7.56513 -22.7341 -13.2068 -10.6258 3.51031 -14.5114 -7.21779 
-67.32 90.0914 -7.02526 93.1903 -1.24286 90.2391 -167.06 3.71684 98.4241 -32.0733 18.4319 -5.09794 66.0559 9.12276 25.1889 35.5503 5.7526 5.62303 176.278 20.4344 80.9964 -24.8736 3.9816 -2.54992 61.7268 -4.0746 14.1976 31.1627 -2.70096 4.12433 -1.17052 7.16314 -89.6762 12.5579 -2.17105 0.899153 0.88835 -2.12936 0.993857 -21.6611 -2.34086 0.204773 -1.64843 -2.34085 0.204776 98.2251 -42.7876 -88.7357 8.73027 34.6628 -43.8484 -17.8619 6.61289 -65.2171 -15.4866 -3.02207 1.99491 -92.0523 -43.6734 73.9941 6.24792 11.0542 -46.9892 9.06231 -12.1286 -47.6426 21.4871 2.65004 -7.81978 -22.2235 -12.879 -11.537 3.95947 -14.0976 -5.76395 
-66.3361 90.224 -6.3504 92.6006 1.14086 91.4315 -167.923 3.54476 98.7657 -30.8281 17.5935 -4.1576 66.3619 9.40429 23.4751 36.0005 6.38051 5.58219 177.211 22.7829 80.8273 -30.7335 2.81673 -3.38723 60.6427 -3.28379 14.2317 34.2124 -3.25424 0.782905 -1.42878 7.15311 -89.6373 12.5826 -2.66539 1.03512 0.913848 -2.61725 1.15148 -21.643 -2.85317 0.185596 -1.63037 -2.85317 0.185593 99.5123 -40.984 -86.6583 11.3627 39.1872 -45.2633 -17.5893 4.98803 -66.6376 -15.9135 -3.15997 3.36548 -91.6733 -43.3836 74.5186 6.06544 11.9534 -36.4344 11.0895 -13.9875 -41.1468 19.2356 2.47728 -7.53155 -22.7456 -12.4553 -13.3294 4.981 -13.7658 -4.23567 
-65.1209 90.3371 -5.455 92.0856 5.15201 90.5014 -168.81 3.01292 99.334 -28.7788 15.5952 -3.05259 67.3098 10.2485 19.8562 36.8421 7.50269 5.59235 178.25 25.0723 80.444 -37.8849 0.603333 -4.47202 59.4126 -2.18429 12.519 36.3154 -4.03684 -0.474811 -1.70228 7.18721 -89.5354 12.5211 -3.16068 1.29356 0.853156 -3.10069 1.43151 -21.7123 -3.40319 0.282843 -1.69965 -3.40318 0.282839 100.744 -39.1605 -84.5752 13.9954 43.2215 -46.8161 -17.7843 4.50993 -66.5139 -16.8328 -3.45354 4.40587 -91.5627 -43.3696 74.6919 5.41197 11.496 -24.9986 10.6422 -13.5861 -37.6407 20.993 2.60753 -6.84762 -24.3651 -12.1387 -15.5657 6.50295 -13.7809 -3.14787 
-63.6823 90.4917 -4.31832 91.5749 9.93289 90.7866 -169.434 2.52495 100.515 -25.8563 11.5717 -1.82161 68.3604 10.5121 14.7344 38.531 10.288 4.274 179.85 26.5839 80.0372 -44.1886 -2.81454 -5.8316 58.3431 -1.0289 9.84499 36.4965 -4.17597 -0.295287 -2.01551 7.24944 -89.445 12.405 -3.74115 1.53535 0.738374 -3.66995 1.69867 -21.8393 -4.02941 0.338325 -1.82668 -4.02939 0.338333 101.543 -37.5408 -83.1744 15.932 45.733 -48.3296 -17.6691 5.19925 -65.7109 -18.802 -4.07787 4.86316 -91.3244 -43.2128 75.0313 4.52755 9.27902 -13.0312 8.13726 -11.1026 -36.5874 21.4665 2.63561 -5.6449 -26.557 -11.1567 -17.3725 8.04593 -13.204 -1.88042 
-62.1431 90.7189 -2.85026 90.5611 14.8848 91.8077 -169.721 3.31284 102.701 -23.5494 8.45896 -0.684938 69.353 10.4693 9.27213 39.7568 11.6716 4.70033 -177.433 26.4304 80.3688 -46.6937 -6.21212 -7.54235 60.3309 -2.99226 10.7771 34.0749 -1.77671 -3.86142 -2.23162 7.33073 -89.4587 12.2478 -4.17883 1.54863 0.58245 -4.10658 1.73127 -22.0063 -4.45072 0.218781 -1.99367 -4.4507 0.218788 102.022 -36.6207 -82.3023 19.8761 48.0482 -51.8088 -18.1283 3.24149 -68.0545 -20.7552 -4.75053 6.00657 -91.2825 -43.1829 75.0907 3.65554 8.98285 -3.63597 6.8792 -10.6456 -32.3058 19.3379 2.44154 -5.70478 -28.991 -9.73745 -18.8217 9.66661 -12.2022 -0.349335 
-60.9477 90.6229 -1.05749 88.1791 20.4403 94.8475 -169.776 9.24811 106.317 -26.411 8.35629 -0.191418 69.6969 9.98401 6.01514 39.8068 11.3451 5.68893 -174.707 25.1599 81.7357 -42.6692 -6.24075 -8.60323 63.3937 -6.18639 14.2755 35.789 -2.99165 -3.1738 -2.3454 7.44105 -89.6643 12.0229 -4.5046 1.16086 0.359061 -4.44918 1.35834 -22.239 -4.64479 -0.249549 -2.22637 -4.64484 -0.249561 101.962 -37.4546 -82.4011 25.5731 51.4498 -56.0825 -16.1045 -4.83033 -76.5872 -23.1524 -5.60033 6.89456 -91.5586 -42.9566 74.5827 2.45274 10.8647 3.81286 6.39015 -11.6942 -27.8544 19.9701 2.52465 -7.06714 -31.0275 -7.64928 -20.3218 11.0599 -10.4474 1.37715 
